<svg xmlns="http://www.w3.org/2000/svg" viewBox="0 0 340 186" width="340" height="186">
  <defs>
    <linearGradient id="bg" x1="0%" y1="0%" x2="100%" y2="100%">
      <stop offset="0%" stop-color="#f5f0e8"/>
      <stop offset="100%" stop-color="#e8dfc8"/>
    </linearGradient>
  </defs>
  <rect width="340" height="186" fill="url(#bg)"/>
  <!-- Mii face body -->
  <ellipse cx="170" cy="78" rx="38" ry="44" fill="#ffe0b2"/>
  <!-- Hair -->
  <ellipse cx="170" cy="48" rx="38" ry="22" fill="#5d4037"/>
  <rect x="132" y="48" width="76" height="16" fill="#5d4037"/>
  <!-- Eyes -->
  <ellipse cx="154" cy="76" rx="7" ry="8" fill="white"/>
  <ellipse cx="186" cy="76" rx="7" ry="8" fill="white"/>
  <circle cx="156" cy="78" r="4" fill="#1a237e"/>
  <circle cx="188" cy="78" r="4" fill="#1a237e"/>
  <circle cx="157" cy="76" r="1.5" fill="white"/>
  <circle cx="189" cy="76" r="1.5" fill="white"/>
  <!-- Nose -->
  <ellipse cx="170" cy="88" rx="4" ry="3" fill="#f4a460" opacity="0.6"/>
  <!-- Mouth -->
  <path d="M159 98 Q170 106 181 98" stroke="#c0392b" stroke-width="2.5" fill="none" stroke-linecap="round"/>
  <!-- Ears -->
  <ellipse cx="132" cy="82" rx="8" ry="11" fill="#ffe0b2"/>
  <ellipse cx="208" cy="82" rx="8" ry="11" fill="#ffe0b2"/>
  <!-- Label -->
  <text x="170" y="150" font-family="'Nunito',Arial,sans-serif" font-weight="800" font-size="18" fill="#5d4037" text-anchor="middle">Mii Channel</text>
  <text x="170" y="170" font-family="'Nunito',Arial,sans-serif" font-weight="600" font-size="11" fill="#8d6e63" text-anchor="middle">About Me</text>
</svg>
